<svg xmlns="http://www.w3.org/2000/svg" xmlns:xlink="http://www.w3.org/1999/xlink" width="2000" zoomAndPan="magnify" viewBox="0 0 1500 1499.999933" height="2000" preserveAspectRatio="xMidYMid meet" version="1.0"><defs><clipPath id="1800008a30"><path d="M 302.988281 132.03125 L 1196.988281 132.03125 L 1196.988281 1368.03125 L 302.988281 1368.03125 Z M 302.988281 132.03125 " clip-rule="nonzero"/></clipPath></defs><g clip-path="url(#1800008a30)"><path fill="#10323d" d="M 1240.011719 925.820312 C 1246.46875 924.085938 1254.136719 929.074219 1254.140625 935.292969 C 1254.335938 1214.679688 1250.941406 1203.679688 1255.335938 1203.261719 C 1257.644531 1203.042969 1258.632812 1200.15625 1258.792969 1197.902344 C 1259.011719 1194.859375 1257.234375 1191.527344 1260.417969 1189.035156 L 1260.3125 1189.039062 C 1264.5 1189.472656 1268.6875 1189.90625 1272.890625 1190.3125 C 1272.890625 1193.804688 1272.890625 1197.296875 1272.890625 1202.585938 C 1275.613281 1197.761719 1278.578125 1196.421875 1282.441406 1197.160156 C 1283.789062 1197.417969 1285.121094 1197.015625 1285.066406 1195.269531 C 1284.902344 1190.195312 1285.925781 1185.082031 1284.519531 1180.050781 C 1283.324219 1175.773438 1279.859375 1179.050781 1277.71875 1177.988281 C 1274.882812 1176.585938 1270.027344 1181.503906 1269.546875 1177.425781 C 1269.101562 1173.667969 1274.574219 1176.027344 1277.339844 1175.410156 C 1280.816406 1174.632812 1283.828125 1172.46875 1287.640625 1172.550781 C 1290.214844 1172.605469 1287.679688 614.179688 1287.644531 613.066406 C 1287.285156 601.027344 1290.636719 605.175781 1299.234375 602.488281 C 1299.480469 602.765625 1299.128906 604 1300.140625 603.050781 C 1299.78125 602.921875 1299.417969 602.792969 1299.058594 602.660156 C 1302.675781 597.5 1314.546875 603.480469 1320.144531 585.328125 C 1320.515625 584.121094 1321.355469 583.242188 1322.257812 583.472656 C 1327.136719 584.726562 1330.535156 580.195312 1335.359375 580.488281 C 1339.425781 580.734375 1345.121094 573.046875 1345.394531 568.554688 C 1345.902344 560.265625 1343.847656 552.03125 1344.269531 543.863281 C 1348.875 454.917969 1338.007812 452.417969 1348.363281 433.097656 C 1349.433594 431.101562 1355.210938 434.796875 1355.414062 438.246094 C 1355.949219 447.324219 1358.082031 457.132812 1356.292969 465.359375 C 1351.082031 489.316406 1359.839844 510.253906 1354.691406 569.042969 C 1354.605469 570.050781 1352.574219 578.136719 1359.773438 573.792969 C 1360.988281 573.058594 1361.222656 573.449219 1362.046875 578.253906 C 1361.734375 578.398438 1361.421875 578.539062 1361.105469 578.679688 C 1361.234375 578.84375 1361.363281 579.007812 1361.488281 579.167969 C 1361.667969 578.859375 1361.847656 578.546875 1362.03125 578.234375 C 1371.363281 586.730469 1383.53125 580.132812 1382.503906 586.3125 C 1381.636719 591.546875 1384.710938 596.542969 1383.21875 601.84375 C 1382.726562 603.589844 1385.585938 603.773438 1390.265625 602.023438 L 1390.097656 602.195312 C 1396.632812 604.632812 1403.417969 602.792969 1410.074219 603.265625 C 1410.960938 603.328125 1412.292969 602.414062 1411.019531 600.714844 C 1410.0625 599.433594 1409.726562 597.691406 1409.109375 596.15625 C 1409.109375 596.15625 1409.382812 596.324219 1409.382812 596.324219 C 1410.585938 595.804688 1410.589844 595.285156 1409.382812 594.761719 L 1409.105469 594.929688 C 1409.648438 592.363281 1405.390625 592.929688 1406.015625 590.121094 C 1409.179688 589.144531 1409.667969 594.253906 1412.796875 593.085938 C 1413.210938 593.050781 1413.613281 593.035156 1414.015625 593.019531 C 1413.886719 592.8125 1413.757812 592.601562 1413.628906 592.394531 C 1413.34375 592.664062 1413.0625 592.9375 1412.777344 593.210938 C 1414.660156 593.894531 1414.089844 590.476562 1416.519531 591.492188 C 1414.765625 595.878906 1415.636719 597.488281 1421.078125 596.429688 C 1425.238281 595.617188 1429.765625 596.734375 1434.144531 595.730469 C 1436.367188 595.21875 1438.261719 596.199219 1438.796875 598.765625 C 1439.34375 598.429688 1438.625 598.855469 1438.050781 599.179688 C 1438.371094 599.503906 1438.691406 599.832031 1439.011719 600.152344 L 1438.808594 600.0625 C 1438.496094 601.601562 1434.800781 602.148438 1436.660156 603.609375 C 1442.265625 608.015625 1447.417969 599.265625 1451.152344 602.085938 C 1453.519531 603.875 1454.476562 607.375 1450.804688 609.960938 C 1450.265625 610.335938 1450.441406 646.945312 1450.441406 647.601562 C 1450.433594 649.597656 1450.425781 652.15625 1452.625 652.277344 C 1455.953125 652.46875 1462.105469 654.589844 1457.925781 657.175781 C 1467.601562 658.257812 1476.421875 658.921875 1485.234375 659.773438 C 1491.964844 660.421875 1498.492188 657.125 1505.304688 659.976562 C 1508 661.101562 1509.332031 662.503906 1509.089844 664.609375 C 1503.804688 710.253906 1509.375 907.914062 1506.445312 994.136719 C 1512.894531 995.394531 1577.484375 998.988281 1581.320312 1001.890625 C 1583.117188 990.710938 1580.449219 963.316406 1582.066406 949.878906 C 1584.234375 931.910156 1583.972656 929.78125 1592.9375 930.078125 C 1607.421875 930.558594 1593.859375 917.21875 1608.863281 917.179688 C 1623.800781 917.144531 1619.015625 916.054688 1642.074219 913.570312 C 1642.070312 913.5625 1642.347656 913.347656 1642.347656 913.347656 L 1641.988281 913.503906 C 1645.59375 908.535156 1639.277344 908.210938 1638.441406 905.335938 C 1640.589844 904.53125 1642.332031 903.976562 1645.40625 905.300781 C 1650.714844 907.585938 1656.910156 905.578125 1662.695312 905.054688 C 1668.257812 904.558594 1659.808594 867.417969 1665.042969 855.722656 C 1666.976562 851.398438 1670.785156 855.738281 1673.777344 854.738281 C 1682.734375 851.75 1691.902344 856.371094 1692.691406 851.476562 C 1693.121094 848.808594 1702.484375 851.136719 1705.917969 850.761719 C 1708.5 850.476562 1707.984375 847.375 1708.164062 845.378906 C 1708.882812 837.257812 1709.15625 837.105469 1717.199219 837.0625 C 1753.15625 836.863281 1734.386719 833.917969 1741.65625 828.933594 C 1744.75 829.683594 1740.125 833.71875 1743.832031 834.128906 C 1749.609375 834.761719 1743.640625 827.789062 1748.773438 827.910156 C 1749.789062 829.222656 1747.414062 830.652344 1747.722656 832.375 C 1748.019531 834.046875 1747.542969 836.027344 1750.203125 835.777344 C 1755.230469 835.304688 1755.917969 838.375 1755.433594 842.230469 C 1754.445312 850.089844 1761.789062 846.117188 1768.253906 850.699219 C 1775.109375 855.554688 1777.976562 849.214844 1781.785156 846.125 C 1784.253906 844.121094 1779.722656 841.105469 1781.851562 838.457031 C 1785.492188 839.417969 1782.054688 843.402344 1784.824219 844.679688 C 1786.828125 843.679688 1783.484375 841.613281 1786.105469 840.46875 C 1786.867188 850.304688 1794.015625 847.128906 1799.726562 847.160156 C 1817.875 847.253906 1823.386719 842.496094 1823.410156 853.664062 C 1823.769531 1027.042969 1822.050781 1147.53125 1822.050781 1147.53125 C 1822.058594 1153.800781 1826.761719 1149.296875 1840.3125 1152.199219 C 1843.773438 1152.941406 1847.503906 1151.210938 1848.773438 1156.941406 C 1849.417969 1159.847656 1854.101562 1158.503906 1856.917969 1158.667969 C 1868.226562 1159.320312 1868.285156 1159.199219 1868.226562 1147.8125 C 1868.0625 1116.160156 1869.136719 1084.503906 1867.855469 1052.855469 C 1867.742188 1050.054688 1864.464844 1032.148438 1870.445312 1022.542969 C 1877.886719 1010.59375 1864.949219 995.964844 1881.230469 982.371094 C 1886.980469 977.574219 1888.546875 970.328125 1890.214844 964.09375 C 1892.636719 955.058594 1896.925781 946.753906 1898.972656 937.6875 C 1899.664062 934.613281 1901.527344 933.890625 1902.980469 937.453125 C 1915.296875 967.644531 1913.023438 966.308594 1919.234375 965.316406 C 1965.984375 957.847656 1967.082031 969.3125 1966.695312 950.949219 C 1966.136719 924.496094 1968.382812 898.105469 1968.308594 871.667969 C 1968.304688 869.320312 1965.820312 867.574219 1971.402344 867.289062 C 1971.300781 867.085938 1971.203125 866.878906 1971.101562 866.675781 C 1970.804688 866.929688 1970.503906 867.183594 1970.207031 867.4375 C 1975.898438 863.644531 1982.710938 864.484375 1988.949219 862.941406 C 1998.902344 860.476562 2009.015625 862.335938 2019.1875 862.609375 C 2019.0625 858.855469 2044.042969 860.085938 2060.542969 860.988281 C 2080.609375 862.089844 2068.765625 853.25 2078.484375 848.285156 L 2078.28125 848.566406 C 2078.453125 848.886719 2078.625 849.207031 2078.796875 849.527344 C 2079.136719 849.207031 2079.480469 848.890625 2079.820312 848.574219 L 2079.632812 848.292969 C 2099.636719 827.515625 2123.105469 832.582031 2127.332031 834.46875 C 2140.828125 840.484375 2148.214844 826.777344 2148.898438 839.320312 C 2149.265625 846.085938 2164.976562 840.066406 2171.46875 841.597656 C 2176.398438 842.757812 2183.152344 838.5625 2185.746094 846.503906 C 2186.460938 848.691406 2188.042969 847.359375 2189.351562 847.53125 C 2200.351562 849.003906 2197.503906 849.675781 2197.691406 897.917969 C 2198.234375 1037.476562 2197.648438 1061.898438 2198.757812 1063.996094 C 2199.8125 1049.839844 2217.191406 1056.179688 2238.824219 1054.953125 C 2242.046875 1054.773438 2245.019531 1056.835938 2248.5625 1056.515625 C 2251.050781 1056.289062 2251.457031 1059.15625 2251.453125 1061.355469 C 2251.433594 1080.960938 2249.464844 1083.550781 2256.726562 1083.25 C 2303.296875 1081.328125 2285.347656 1070.980469 2289.339844 1161.402344 C 2289.609375 1167.484375 2292.167969 1169.046875 2297.109375 1166.984375 C 2301.183594 1165.285156 2304.453125 1168.039062 2308.261719 1167.929688 C 2317.761719 1167.652344 2314.933594 1166.828125 2316.105469 1132.570312 C 2316.132812 1131.65625 2316.761719 1130.765625 2318.054688 1129.945312 C 2318.054688 1165.960938 2317.277344 1164.210938 2319.675781 1165.175781 C 2331.71875 1170.023438 2329.066406 1156.191406 2344.417969 1163.9375 C 2349.476562 1166.492188 2350.191406 1164.832031 2350.140625 1160.175781 C 2350 1147.175781 2352.253906 1134.246094 2351.417969 1121.210938 C 2351.34375 1120.101562 2350.992188 1118.667969 2352.992188 1117.847656 C 2355.214844 1120.492188 2352.648438 1129.191406 2353.1875 1135.460938 C 2353.832031 1142.9375 2353.191406 1142.875 2360.589844 1141.382812 C 2369.632812 1139.558594 2362.792969 1155.632812 2367.242188 1156.023438 C 2369.433594 1156.21875 2369.488281 1153.300781 2369.28125 1152.199219 C 2367.15625 1140.988281 2376.867188 1145.664062 2377.972656 1144.582031 C 2385.128906 1137.546875 2393.058594 1144.148438 2400.5625 1143.300781 C 2411.605469 1142.054688 2398.886719 1165.132812 2409.042969 1166.464844 C 2409.042969 1289.679688 2409.015625 1412.898438 2409.15625 1536.113281 C 2409.167969 1545.332031 2577.09375 1541.953125 -411.601562 1541.953125 C -411.601562 1117.574219 -419.4375 1213.777344 -393.246094 1203.265625 C -381.820312 1198.679688 -363.933594 1204.953125 -362.578125 1200.570312 C -358.320312 1186.828125 -353.144531 1199.65625 -354.84375 1189.597656 C -358.039062 1170.675781 -340.503906 1193.957031 -339.472656 1176.667969 C -339.386719 1175.191406 -340.789062 1173.0625 -337.785156 1172.90625 C -335.765625 1172.804688 -333.386719 1173.042969 -332.980469 1170.332031 C -332.542969 1167.394531 -336.238281 1168.367188 -337.179688 1166.5625 C -336.113281 1164.292969 -333.894531 1164.859375 -332.722656 1165.300781 C -316.167969 1171.519531 -290.605469 1163.332031 -284.378906 1171.007812 C -282.414062 1173.429688 -275.941406 1172.503906 -271.503906 1172.507812 C -260.414062 1172.515625 -267.214844 1184.363281 -254.511719 1183.089844 C -252.824219 1182.921875 -251.097656 1183.113281 -249.390625 1183.125 C -241.554688 1183.164062 -241.652344 1183.160156 -241.710938 1191.742188 C -241.730469 1194.453125 -241.542969 1197.847656 -237.296875 1196.773438 C -233.128906 1195.714844 -233.289062 1201.394531 -229.285156 1201.164062 C -222.796875 1200.785156 -215.949219 1202.246094 -209.945312 1199.476562 C -204.664062 1197.035156 -199.640625 1197.890625 -194.5625 1198.558594 C -187.230469 1199.519531 -179.378906 1195.671875 -172.472656 1201.019531 C -166.257812 1205.832031 -174.304688 1175.980469 -169.734375 1094.019531 C -169.675781 1092.980469 -169.199219 1091.816406 -170.296875 1091.136719 C -176.152344 1087.519531 -178.933594 1080.8125 -185.371094 1076.621094 C -172.324219 1073.121094 -170.316406 1063.464844 -170.660156 1052.40625 C -171.261719 1033 -158.726562 1012.28125 -140.597656 1005.925781 C -137.960938 1005.003906 -134.3125 1002.597656 -135.703125 998.234375 C -136.351562 996.195312 -134.777344 994.019531 -134.113281 993.984375 C -127.691406 993.660156 -129.621094 988.871094 -129.777344 985.652344 C -130.128906 978.285156 -128.183594 970.792969 -131.007812 963.511719 C -131.433594 962.410156 -124.363281 948.410156 -138.449219 941.328125 C -117.230469 926.460938 -129.113281 934.691406 -121.6875 901.007812 C -118.859375 888.175781 -98.398438 890.410156 -91.417969 880.402344 C -87.417969 874.667969 -87.289062 874.335938 -94.878906 871.460938 C -84.886719 870.675781 -90.746094 864.160156 -87.109375 854.761719 C -85.585938 850.828125 -86.578125 849.183594 -90.285156 847.015625 C -96.222656 843.546875 -95.105469 832.320312 -89.050781 829.269531 C -84.738281 827.097656 -85.539062 817.597656 -89.652344 813.59375 C -94.882812 808.511719 -100.6875 803.847656 -101.808594 795.523438 C -102.238281 792.335938 -108.246094 793.179688 -110.257812 789.835938 C -110.019531 787.042969 -99.441406 789.039062 -101.421875 780.785156 C -101.859375 778.957031 -100.773438 778.039062 -98.917969 778.0625 C -98.671875 778.335938 -99.015625 779.574219 -98.011719 778.621094 C -98.371094 778.492188 -98.734375 778.363281 -99.097656 778.234375 C -100.785156 770.292969 -85.058594 768.644531 -86.03125 755.261719 C -87.988281 728.34375 -78.582031 741.792969 -81.191406 756.480469 C -83.496094 769.46875 -56.988281 780.339844 -68.046875 787.46875 C -64.902344 789.71875 -58.347656 786.496094 -58.027344 791.253906 C -57.828125 794.21875 -59.304688 793.546875 -65.339844 793.460938 C -65.347656 793.472656 -65.613281 793.363281 -65.613281 793.363281 L -65.152344 793.46875 C -66.296875 797.160156 -67.082031 800.550781 -69.425781 804.253906 C -73.488281 810.667969 -83.738281 814.058594 -81.292969 824.316406 C -80.75 826.585938 -81.453125 828.605469 -77.839844 829.714844 C -71.988281 831.515625 -71.027344 842.503906 -75.886719 846.65625 C -77.972656 848.4375 -81.523438 849.65625 -80.808594 852.855469 C -79.503906 858.6875 -81.976562 865.402344 -77.085938 870.339844 C -75.855469 871.582031 -74.046875 872.933594 -75.546875 874.222656 C -80.226562 878.25 -76.523438 879.546875 -73.917969 882.175781 C -61.347656 894.84375 -43.15625 892.574219 -45.039062 919.808594 C -46.652344 943.175781 -26.144531 942.941406 -33.324219 948.429688 C -44.859375 957.242188 -35.636719 965.066406 -37.808594 969.945312 C -41.234375 977.660156 -39.1875 985.863281 -39.96875 993.8125 C -40.175781 995.929688 -38.082031 995.78125 -37.433594 997.015625 C -36.152344 999.441406 -29.246094 999.53125 -34.265625 1004.757812 C -34.523438 1005.027344 -32.382812 1007.238281 -30.695312 1008.046875 C -12.097656 1016.945312 -3.199219 1032.554688 -0.367188 1053.332031 C 3.351562 1052.660156 0.90625 1049.304688 3.398438 1047.976562 C 4.660156 1056.789062 2.75 1065.675781 5.734375 1074.089844 C 5.726562 1072.984375 4.242188 834.796875 5.382812 834.632812 C 12.964844 833.542969 19.863281 829.730469 27.644531 829.328125 C 37.105469 828.84375 33.070312 824.5 28.953125 814.835938 C 37.089844 810.9375 35.996094 819.871094 43.613281 826.964844 C 48.097656 831.140625 53.496094 830.710938 56.046875 818.949219 C 56.277344 817.898438 56.425781 816.289062 57.617188 816.761719 C 61.890625 818.453125 65.992188 816.324219 70.175781 816.550781 C 71.5 816.621094 72.976562 817.21875 74.257812 815.699219 C 77.175781 812.242188 80.207031 808.886719 83.363281 815.730469 C 85.320312 819.976562 91.609375 812.054688 95.417969 816.828125 C 95.652344 817.121094 96.28125 817.480469 96.480469 817.371094 C 110.46875 809.601562 125.164062 816.726562 139.480469 815.386719 C 164.882812 813.007812 174.746094 818.246094 171.8125 810.671875 C 171.296875 809.339844 170.25 806.71875 173.59375 806.355469 C 185.050781 805.125 170.953125 816.835938 189.058594 816.644531 C 198.835938 816.539062 198.828125 816.621094 199.648438 825.988281 C 199.765625 827.359375 199.210938 829.480469 201.488281 829.292969 C 207.738281 828.773438 213.101562 832.527344 219.519531 832.242188 C 227.902344 831.867188 236.117188 835.214844 244.683594 835.027344 C 248.886719 834.933594 249.804688 837.601562 249.78125 841.710938 C 249 970.757812 250.316406 1079.375 251.023438 1088.375 C 250.804688 1088.519531 250.582031 1088.664062 250.363281 1088.808594 C 250.828125 1088.796875 250.761719 1088.992188 250.898438 1088.238281 C 251.996094 1185.214844 247.34375 1184.417969 257.140625 1184.542969 C 261.875 1184.605469 267.65625 1182.15625 270.4375 1189.664062 C 271.105469 1191.464844 277.78125 1193.613281 281.179688 1191.003906 C 289.242188 1184.816406 299.507812 1197.328125 305.101562 1187.617188 C 305.308594 1187.253906 306.425781 1186.941406 306.695312 1187.152344 C 314.847656 1193.4375 309.355469 1184.996094 311.390625 1145.414062 C 311.734375 1138.699219 313 1132.167969 311.453125 1125.371094 C 310.738281 1122.246094 313.640625 1121.585938 316.582031 1121.519531 C 319.902344 1121.445312 321.921875 1122.015625 321.550781 1125.90625 C 319.402344 1148.496094 321.921875 1171.015625 321.636719 1185.464844 C 321.515625 1191.59375 325.644531 1190.453125 329.296875 1190.375 C 331.636719 1190.324219 331.828125 1190.34375 331.648438 1185.964844 C 330.636719 1161.175781 330.1875 1136.363281 330.160156 1111.554688 C 330.152344 1104.261719 325.96875 1067.886719 332.417969 1063.984375 C 334.570312 1062.683594 337.226562 1062.664062 339.738281 1062.660156 C 354.640625 1062.648438 369.511719 1061.605469 384.355469 1060.363281 C 395.871094 1059.398438 411.644531 1060.992188 422.546875 1057.554688 C 427.300781 1056.054688 427.585938 1053.800781 428.589844 1049.46875 C 430.390625 1041.679688 429.925781 1032.9375 430.0625 1025.011719 C 430.804688 981.464844 429.707031 937.855469 429.492188 894.308594 C 429.089844 813.546875 429.355469 732.78125 430.085938 652.023438 C 431.835938 459.308594 422.335938 467.792969 437.234375 460.132812 C 447.042969 455.09375 457.367188 459.378906 467.242188 457.6875 C 480.367188 455.433594 491.171875 461.550781 502.410156 466.539062 C 504.472656 464.386719 502.019531 460.859375 504.863281 459.140625 C 507.71875 460.746094 502.230469 469.804688 513.953125 471.625 C 520.472656 472.640625 526.355469 477.75 532.535156 481.015625 C 534.761719 482.195312 534.101562 484.328125 534.121094 486.097656 C 534.492188 517.53125 532.523438 520.3125 538.726562 515.742188 C 541.835938 513.453125 539.042969 520.730469 542.804688 520.304688 C 545.445312 520.003906 544.355469 517.644531 544.359375 516.207031 C 544.449219 499.339844 544.636719 482.46875 544.285156 465.605469 C 544.011719 452.511719 552.632812 459.292969 556.074219 447.167969 C 560.199219 432.632812 560.515625 427.015625 559.726562 322.386719 C 559.585938 303.847656 571.203125 320.039062 577.128906 287.390625 C 578.105469 282.011719 578.355469 276.542969 576.503906 271.121094 C 571.625 256.824219 583.34375 237.90625 575.691406 221.8125 C 575.011719 220.382812 574.636719 218.113281 575.296875 216.847656 C 582.023438 203.992188 574.039062 132.355469 582.828125 132.265625 C 588.515625 132.210938 582.328125 139.96875 587.9375 149.722656 C 590.242188 153.726562 588 157.902344 587.996094 162.003906 C 587.984375 176.9375 585.960938 192.238281 588.585938 206.695312 C 591.03125 220.164062 585.449219 232.902344 588.296875 245.746094 C 592.632812 265.300781 585.921875 300.878906 598.511719 301.480469 C 608.660156 301.96875 605.214844 310.457031 608.273438 311.597656 C 618.242188 315.320312 614.675781 316.667969 615.246094 398.378906 C 615.359375 414.933594 616.214844 431.492188 615.972656 448.039062 C 615.898438 453.152344 617.695312 456.007812 621.824219 457.195312 C 627.792969 458.90625 626.503906 460.316406 626.699219 492.800781 C 626.707031 494.214844 625.964844 495.917969 628.136719 496.410156 C 631.472656 497.160156 629.96875 491.171875 633.265625 492.351562 C 640.273438 494.855469 647.675781 493.707031 654.867188 494.304688 C 662.902344 494.972656 670.789062 497.3125 679.03125 496.335938 C 683.925781 495.753906 688.335938 498.789062 693.085938 499.828125 C 704.945312 502.414062 698.503906 515.984375 699.960938 575.617188 C 700.25 587.4375 701.925781 731.265625 699.753906 738.277344 C 699.699219 738.230469 699.644531 738.179688 699.59375 738.125 C 699.699219 738.214844 699.800781 738.300781 699.902344 738.390625 C 699.796875 739.257812 699.691406 740.121094 699.585938 740.992188 C 699.308594 741.238281 698.074219 740.886719 699.023438 741.898438 C 699.152344 741.539062 699.28125 741.175781 699.414062 740.816406 C 701.703125 745.113281 706.570312 743.992188 709.949219 744.859375 C 719.347656 747.273438 729.132812 747.601562 738.445312 742.671875 C 746.230469 766.96875 744.335938 766.097656 744.339844 878.867188 C 744.339844 886.972656 743.972656 890.339844 747.039062 891.125 C 750.191406 891.933594 753.503906 890.445312 754.550781 886.605469 C 755.539062 882.957031 756.644531 885.546875 757.746094 886.46875 C 757.410156 886.308594 757.078125 886.152344 756.742188 885.992188 C 756.703125 886.195312 756.664062 886.398438 756.625 886.601562 C 756.996094 886.542969 757.371094 886.488281 757.742188 886.429688 C 759.773438 887.921875 756.28125 889.476562 757.953125 891.535156 C 759.003906 892.828125 759.277344 894.15625 760.914062 892.957031 C 772.046875 884.78125 779.644531 894.285156 788.679688 898.121094 C 789.925781 897.019531 788.738281 895.136719 789.285156 893.636719 C 790.613281 890.015625 795.753906 890.757812 795.867188 893.964844 C 796.035156 898.515625 796.9375 903.058594 796.851562 907.59375 C 796.769531 911.910156 799.199219 913.511719 802.613281 913.597656 C 834.519531 914.394531 831.417969 913.988281 831.644531 910.164062 C 832.492188 895.941406 831.792969 895.289062 834.519531 893.882812 C 835.878906 893.179688 837.371094 894.441406 837.671875 895.328125 C 838.78125 898.5625 840.886719 897.046875 843.027344 897.269531 C 847.039062 897.6875 850.554688 892.753906 855.148438 897.109375 C 857.589844 899.421875 861.625 894.582031 865.878906 896.351562 C 867.460938 897.007812 867.445312 892.449219 866.28125 889.308594 C 877.316406 900.089844 879.664062 912.589844 876.996094 927.199219 C 880.457031 925.984375 881.890625 924.839844 885.035156 927.160156 C 888.519531 929.730469 895.253906 928.019531 900.566406 927.914062 C 901.832031 927.890625 902.03125 928.886719 903.234375 909.574219 C 903.484375 905.527344 906.425781 904.929688 907.988281 907.394531 C 910.261719 910.980469 912.996094 909.933594 915.777344 909.925781 C 926.21875 909.90625 936.582031 909.148438 946.644531 906.035156 C 947.226562 905.855469 948.414062 906.074219 948.445312 905.917969 C 950.1875 897.824219 954.710938 903.039062 958.78125 903.191406 C 966.359375 903.476562 974.207031 905.621094 981.664062 901.792969 C 983.988281 900.597656 985.609375 903.761719 988.023438 903.730469 C 994.207031 903.652344 1000.394531 903.648438 1006.578125 903.792969 C 1020.640625 904.128906 1016.285156 840.789062 1017.238281 1133.679688 C 1017.25 1137.070312 1015.660156 1140.992188 1019.015625 1143.898438 L 1018.851562 1143.730469 C 1020.222656 1144.667969 1021.597656 1145.601562 1022.972656 1146.527344 C 1022.925781 1146.4375 1022.875 1146.359375 1022.824219 1146.28125 C 1022.800781 1146.402344 1022.777344 1146.527344 1022.753906 1146.648438 C 1029.828125 1147.101562 1036.894531 1145.96875 1043.570312 1144.308594 C 1056.363281 1141.132812 1046.730469 1124.503906 1051.738281 1108.570312 C 1053.394531 1103.304688 1059.640625 1099.683594 1064.734375 1101.203125 L 1064.585938 1101.011719 C 1065.078125 1102.472656 1065.601562 1101.960938 1066.128906 1101.035156 L 1065.992188 1101.207031 C 1066.839844 1101.203125 1067.6875 1101.203125 1068.539062 1101.199219 L 1068.410156 1101.003906 C 1068.890625 1102.230469 1069.449219 1101.421875 1069.988281 1101.0625 L 1069.875 1101.210938 C 1070.71875 1101.210938 1071.5625 1101.207031 1072.40625 1101.207031 L 1072.269531 1101.015625 C 1072.769531 1102.273438 1073.292969 1101.941406 1073.824219 1101.039062 L 1073.695312 1101.207031 C 1075.132812 1100.046875 1076.402344 1098.480469 1078.039062 1097.796875 C 1091.835938 1092.066406 1070.632812 1086.03125 1081.613281 1085.136719 C 1083.269531 1085.003906 1082.519531 1087.683594 1082.699219 1037.746094 C 1082.726562 1030.953125 1085.433594 1027.867188 1092.265625 1028.316406 C 1106.246094 1029.230469 1120.523438 1027.078125 1134.066406 1029.15625 C 1145.464844 1030.902344 1141.691406 1024.746094 1141.710938 1020.203125 C 1141.84375 992.914062 1141.695312 965.617188 1141.695312 938.324219 C 1141.699219 929.574219 1150.988281 923.121094 1158.800781 925.964844 C 1157.679688 910.199219 1158.550781 894.273438 1158.261719 878.363281 C 1158.222656 876.226562 1160.363281 875.84375 1160.949219 874.292969 L 1160.746094 874.402344 C 1161.238281 873.90625 1161.726562 873.410156 1162.222656 872.914062 L 1162.027344 873.105469 C 1162.347656 872.929688 1162.667969 872.753906 1162.984375 872.574219 C 1162.667969 872.253906 1162.347656 871.933594 1162.027344 871.609375 L 1162.210938 871.78125 C 1168.246094 867.40625 1175.25 868.53125 1182.023438 868.242188 C 1218.984375 866.664062 1218.535156 869.550781 1218.515625 876.816406 C 1218.480469 890.238281 1218.460938 903.660156 1218.527344 917.082031 C 1218.546875 921.269531 1220.355469 923.785156 1225.039062 922.964844 L 1224.863281 923.136719 C 1226.277344 921.628906 1227.816406 922.722656 1229.3125 922.917969 L 1229.429688 922.699219 C 1230.1875 929.101562 1233.273438 921.199219 1234.691406 923.554688 L 1234.664062 923.429688 C 1236.78125 923.488281 1236.460938 929.507812 1240.167969 925.679688 Z M 1240.011719 925.820312 " fill-opacity="1" fill-rule="nonzero"/></g><path fill="#10323d" d="M 712.15625 744.398438 L 711.714844 744.15625 L 712.222656 744.035156 Z M 712.15625 744.398438 " fill-opacity="1" fill-rule="nonzero"/><path fill="#10323d" d="M 1160.953125 873 C 1160.925781 872.132812 1161.394531 871.773438 1162.214844 871.773438 C 1162.214844 871.773438 1162.035156 871.039062 1162.035156 873.101562 C 1162.332031 872.800781 1161.242188 872.898438 1160.75 872.890625 Z M 1160.953125 873 " fill-opacity="1" fill-rule="nonzero"/><path fill="#10323d" d="M 1160.953125 874.289062 C 1159.96875 873.859375 1159.898438 873.433594 1160.953125 873.003906 C 1160.953125 873.003906 1160.746094 872.890625 1160.746094 872.890625 C 1160.75 873.394531 1160.75 873.894531 1160.75 874.398438 Z M 1160.953125 874.289062 " fill-opacity="1" fill-rule="nonzero"/><path fill="#10323d" d="M 945.167969 901.847656 C 945.101562 901.96875 945.03125 902.089844 944.964844 902.210938 C 944.78125 902.082031 944.597656 901.945312 944.414062 901.816406 C 944.910156 901.367188 944.714844 901.355469 945.167969 901.847656 Z M 945.167969 901.847656 " fill-opacity="1" fill-rule="nonzero"/><path fill="#10323d" d="M 1064.738281 1101.199219 C 1064.949219 1100.855469 1065.160156 1100.511719 1065.367188 1100.167969 C 1065.578125 1100.511719 1065.785156 1100.855469 1065.992188 1101.199219 C 1065.992188 1101.199219 1066.648438 1101.039062 1064.589844 1101.003906 Z M 1064.738281 1101.199219 " fill-opacity="1" fill-rule="nonzero"/><path fill="#10323d" d="M 1068.542969 1101.195312 C 1068.996094 1100.148438 1069.441406 1100.039062 1069.878906 1101.207031 C 1069.878906 1101.207031 1069.992188 1101.054688 1069.992188 1101.054688 C 1069.464844 1101.035156 1068.941406 1101.015625 1068.414062 1100.996094 Z M 1068.542969 1101.195312 " fill-opacity="1" fill-rule="nonzero"/><path fill="#10323d" d="M 1072.410156 1101.199219 C 1072.839844 1100.011719 1073.269531 1099.949219 1073.699219 1101.203125 C 1073.699219 1101.203125 1074.347656 1101.039062 1072.273438 1101.011719 Z M 1072.410156 1101.199219 " fill-opacity="1" fill-rule="nonzero"/><path fill="#10323d" d="M 1019.019531 1143.894531 C 1018.960938 1143.496094 1018.898438 1143.097656 1018.839844 1142.699219 C 1020.078125 1143.054688 1018.921875 1143.363281 1018.839844 1143.710938 C 1018.855469 1143.726562 1019.019531 1143.894531 1019.019531 1143.894531 Z M 1019.019531 1143.894531 " fill-opacity="1" fill-rule="nonzero"/></svg>